<?xml version="1.0" standalone="no"?>
<!DOCTYPE svg PUBLIC "-//W3C//DTD SVG 20010904//EN"
 "http://www.w3.org/TR/2001/REC-SVG-20010904/DTD/svg10.dtd">
<svg version="1.0" xmlns="http://www.w3.org/2000/svg"
 width="683.000000pt" height="661.000000pt" viewBox="0 0 683.000000 661.000000"
 preserveAspectRatio="xMidYMid meet">

<g transform="translate(0.000000,661.000000) scale(0.100000,-0.100000)"
fill="#000000" stroke="none">
<path d="M2890 5630 c-214 -33 -405 -94 -628 -202 -109 -53 -233 -127 -271
-164 -12 -11 -11 -12 7 -7 14 3 22 1 22 -7 0 -7 8 -9 20 -5 15 5 32 -3 60 -29
43 -39 70 -45 90 -21 17 21 37 19 50 -5 7 -14 7 -20 0 -20 -5 0 -10 -4 -10
-10 0 -5 11 -10 25 -10 29 0 31 -5 8 -28 -16 -16 -15 -17 5 -20 12 -2 36 3 52
12 17 8 30 11 30 6 0 -5 10 -12 22 -16 21 -6 21 -7 -6 -18 -15 -6 -32 -22 -39
-36 -9 -17 -22 -26 -44 -28 -19 -2 -46 -18 -72 -41 -50 -46 -53 -80 -12 -130
27 -33 28 -36 16 -83 -11 -41 -11 -51 1 -62 8 -8 14 -19 14 -25 0 -33 50 7
121 96 9 11 22 22 28 24 6 2 13 14 16 27 9 46 70 102 112 102 25 0 42 -31 36
-68 -5 -28 -2 -34 16 -39 21 -5 30 -23 11 -23 -5 0 -10 -5 -10 -11 0 -6 8 -8
18 -5 21 7 48 -42 32 -58 -17 -17 -11 -36 14 -46 18 -6 25 -18 28 -47 6 -47 1
-63 -22 -63 -9 0 -25 -9 -35 -20 -11 -12 -30 -20 -49 -19 -74 1 -166 -30 -197
-67 -13 -16 -11 -17 24 -10 21 4 45 10 53 13 8 3 14 0 14 -6 0 -6 -4 -11 -9
-11 -5 0 -11 -7 -14 -14 -4 -11 -1 -13 11 -9 14 5 13 1 -4 -16 -23 -24 -100
-36 -111 -18 -4 6 -1 13 5 15 7 2 12 10 12 18 0 10 -8 12 -32 7 -36 -6 -151
-62 -131 -63 13 0 -16 -60 -29 -60 -5 0 -8 -9 -8 -19 0 -11 -34 -55 -75 -99
-54 -57 -75 -87 -75 -106 l0 -26 655 0 655 0 0 30 c0 16 8 37 19 47 10 10 25
31 33 47 9 16 33 39 54 51 21 12 41 30 44 41 3 10 12 29 20 42 14 20 20 22 75
16 33 -3 103 -1 155 6 136 18 154 16 187 -14 29 -27 81 -43 108 -33 12 5 13
-1 9 -36 -5 -38 -3 -44 24 -64 17 -12 49 -28 71 -35 40 -12 41 -14 41 -55 l0
-43 338 1 c342 1 391 4 202 13 -114 5 -135 8 -147 21 -4 4 -2 5 5 1 7 -4 12
-2 12 6 0 10 2 10 9 -1 6 -9 18 -11 42 -6 l34 8 -47 14 c-49 14 -53 19 -42 47
9 22 23 10 17 -14 -5 -17 -1 -20 28 -19 19 1 26 3 17 6 -25 6 -22 18 7 41 16
13 25 30 25 47 0 26 2 27 45 23 34 -2 45 1 48 12 2 10 5 7 9 -7 4 -16 2 -23
-8 -23 -8 0 -14 -4 -14 -9 0 -5 10 -7 23 -3 20 5 21 4 7 -13 -8 -10 -10 -16
-3 -12 6 4 32 -2 57 -13 33 -14 46 -25 46 -40 0 -22 16 -27 23 -7 2 6 7 -7 11
-30 l8 -43 179 0 c111 0 179 4 179 10 0 19 -72 226 -112 320 -188 447 -558
833 -1013 1056 -229 112 -414 165 -670 194 -142 16 -423 11 -555 -10z m422
-264 c19 -9 60 -18 91 -20 31 -1 59 -5 62 -8 3 -3 -5 -30 -19 -59 -17 -39 -21
-57 -14 -66 12 -15 -6 -43 -28 -43 -7 0 -16 -9 -19 -20 -3 -11 -13 -20 -22
-20 -9 0 -13 -6 -9 -15 3 -8 1 -15 -4 -15 -6 0 -10 -9 -10 -20 0 -18 -6 -22
-27 -19 -3 0 -10 -6 -15 -15 -5 -9 -19 -16 -32 -16 -15 0 -26 -7 -29 -21 -3
-11 -19 -25 -35 -31 -16 -6 -33 -20 -38 -31 -7 -17 -22 -29 -52 -44 -2 0 -5
-7 -6 -15 -5 -28 -37 -78 -51 -78 -8 0 -15 4 -15 10 0 5 -18 26 -40 46 -61 56
-93 118 -86 162 10 61 8 71 -24 120 -23 35 -29 53 -25 74 6 24 3 28 -22 35
-32 8 -64 5 -78 -8 -16 -16 -28 -10 -22 11 3 11 1 20 -5 20 -5 0 -6 5 -2 11 5
8 9 8 14 -1 6 -9 23 -8 71 6 65 18 87 33 67 45 -6 4 -2 10 11 14 11 3 26 3 31
0 6 -4 41 0 78 9 37 8 81 17 97 20 56 8 173 -2 207 -18z m-548 -35 c7 -10 -17
-21 -46 -21 -14 0 -18 -5 -14 -15 7 -18 -38 -20 -99 -4 -22 6 -46 11 -53 11
-7 1 -9 5 -4 10 5 5 28 2 53 -6 55 -20 63 -20 55 -1 -3 8 2 19 12 24 21 13 89
14 96 2z m-274 -30 c0 -6 -9 -16 -20 -24 -11 -8 -17 -17 -13 -20 11 -11 36 -8
52 7 26 23 66 29 80 12 7 -8 19 -12 27 -9 8 3 14 0 14 -6 0 -6 -10 -11 -22
-11 -13 0 -32 -7 -42 -15 -28 -21 -137 -19 -134 3 2 9 -8 22 -22 30 -22 12
-22 13 -4 9 12 -2 28 -1 35 4 10 6 7 9 -11 10 -20 1 -18 3 10 9 19 4 38 8 43
9 4 0 7 -3 7 -8z m-75 -81 c-3 -5 -14 -10 -23 -9 -14 0 -13 2 3 9 27 11 27 11
20 0z m1481 -1 c10 -17 115 -61 131 -54 8 3 44 -9 79 -25 l64 -31 -28 -24
c-22 -20 -24 -26 -12 -34 8 -5 18 -7 22 -5 4 3 8 -1 8 -9 0 -8 19 -37 43 -63
42 -46 43 -49 30 -75 -10 -19 -11 -34 -5 -46 11 -20 -13 -93 -30 -93 -5 0 -6
-15 -3 -33 4 -19 0 -51 -9 -77 -9 -25 -16 -51 -16 -59 0 -8 -7 -22 -16 -32
-13 -14 -21 -15 -52 -7 -20 6 -47 19 -61 29 -27 22 -41 24 -41 8 0 -14 25 -35
60 -51 23 -10 23 -12 6 -16 -18 -4 -18 -5 5 -23 23 -18 23 -19 3 -19 -11 0
-31 11 -44 25 -13 14 -28 25 -34 25 -6 0 -23 11 -38 25 -49 45 -63 30 -23 -25
14 -19 25 -42 25 -51 0 -10 17 -31 37 -46 55 -41 74 -63 68 -73 -11 -19 -45
-3 -49 22 -1 8 -18 30 -39 47 -20 18 -37 41 -37 50 0 9 -15 31 -34 49 -37 34
-76 43 -76 16 0 -14 -8 -15 -54 -10 -42 6 -55 4 -59 -8 -3 -8 -21 -16 -39 -18
-30 -3 -33 -6 -36 -38 -5 -65 -28 -98 -71 -105 -44 -7 -149 17 -163 37 -5 7
-7 36 -4 63 3 28 6 60 6 73 0 20 5 22 58 22 76 0 89 9 70 46 -19 41 -12 64 24
71 42 8 16 23 -42 23 -25 0 -40 4 -34 8 17 11 27 92 13 109 -19 22 13 52 35
33 9 -7 16 -18 16 -24 0 -6 16 -22 35 -36 20 -15 35 -35 37 -50 2 -17 10 -26
26 -28 26 -4 82 16 82 28 0 10 80 30 119 30 16 0 32 4 36 9 3 5 33 8 68 7 83
-4 119 3 124 26 3 10 9 18 14 18 17 0 9 25 -11 38 -11 7 -20 19 -20 28 0 9
-15 29 -32 45 -28 24 -31 31 -18 39 13 9 13 10 0 11 -8 1 -21 1 -29 0 -7 -2
-10 2 -6 8 3 6 18 11 33 12 15 0 21 3 12 6 -8 3 -23 15 -32 27 l-18 21 -35
-40 -35 -40 24 -8 c15 -5 31 -24 42 -50 10 -23 20 -45 22 -49 2 -5 -5 -8 -17
-8 -25 0 -37 -18 -22 -33 16 -16 14 -47 -3 -47 -8 0 -16 7 -20 15 -3 8 -12 15
-20 15 -7 0 -16 7 -20 15 -3 8 -16 15 -30 15 -19 0 -26 7 -31 31 -7 29 -8 30
-47 24 -48 -8 -78 13 -78 56 0 21 7 32 29 44 20 10 31 24 33 42 2 22 11 30 36
39 41 13 48 24 63 92 12 51 21 63 35 41z m-1411 -35 c18 -18 16 -35 -5 -42 -9
-3 -11 1 -7 12 6 14 3 15 -15 5 -31 -16 -98 -21 -98 -7 0 9 -3 9 -12 0 -7 -7
-17 -12 -22 -12 -6 0 -3 7 7 15 11 7 24 12 31 9 7 -3 21 4 31 16 22 24 67 26
90 4z m85 -24 c0 -5 -7 -10 -16 -10 -8 0 -12 5 -9 10 3 6 10 10 16 10 5 0 9
-4 9 -10z m90 -41 c0 -4 -6 -10 -12 -13 -7 -4 -2 -4 11 -2 35 7 103 -65 99
-103 -3 -24 -7 -26 -50 -29 -46 -3 -60 -13 -38 -27 8 -5 7 -11 -1 -21 -15 -19
-20 -18 -50 9 -13 13 -31 26 -39 29 -10 3 -1 16 27 44 37 36 40 41 27 59 -8
10 -17 16 -20 12 -9 -8 -64 24 -64 38 0 5 12 17 28 26 24 15 30 15 55 0 15 -8
27 -18 27 -22z m-210 1 c0 -5 -9 -10 -21 -10 -11 0 -17 5 -14 10 3 6 13 10 21
10 8 0 14 -4 14 -10z m950 -10 c0 -5 -7 -10 -15 -10 -8 0 -15 5 -15 10 0 6 7
10 15 10 8 0 15 -4 15 -10z m800 -20 c0 -5 -4 -10 -10 -10 -5 0 -10 5 -10 10
0 6 5 10 10 10 6 0 10 -4 10 -10z m-1710 -16 c0 -20 -70 -64 -103 -64 -26 0
-28 2 -16 16 25 31 119 69 119 48z m1822 -47 c50 -37 37 -45 -15 -10 -29 19
-54 39 -56 45 -4 11 31 -6 71 -35z m-868 13 c16 -6 26 -17 26 -30 0 -18 -6
-20 -59 -20 -51 0 -62 3 -76 22 -14 21 -14 23 2 30 27 10 78 9 107 -2z m383
-202 c23 -21 31 -48 15 -48 -9 0 -44 36 -56 58 -12 20 16 14 41 -10z m197 13
c3 -4 3 -11 0 -14 -8 -8 -34 3 -34 14 0 11 27 12 34 0z m-564 -91 c0 -28 -21
-36 -37 -14 -12 16 -11 20 3 31 21 15 34 8 34 -17z m-805 -227 c-13 -32 -10
-48 8 -47 20 2 23 -24 3 -32 -7 -3 -39 -4 -71 -2 l-57 3 23 29 c22 28 75 66
93 66 4 0 5 -8 1 -17z m2162 -141 c12 -7 29 -12 38 -12 9 0 18 -12 21 -30 4
-16 25 -47 47 -70 48 -47 42 -49 -40 -15 -34 13 -87 26 -117 27 -50 3 -56 5
-56 24 0 12 7 25 16 28 10 4 14 14 11 26 -4 17 -1 19 21 14 26 -6 26 -6 7 10
-20 16 -20 16 5 13 14 -2 35 -8 47 -15z m-2568 -41 c-27 -37 -85 -56 -64 -21
8 13 66 50 78 50 4 0 -2 -13 -14 -29z m1663 11 c-7 -2 -10 -8 -6 -13 3 -5 0
-9 -5 -9 -12 0 -15 23 -5 33 4 4 12 4 17 0 8 -5 7 -8 -1 -11z m348 -224 c0
-10 -7 -18 -15 -18 -8 0 -15 4 -15 8 0 14 -51 33 -70 27 -13 -4 -17 1 -18 27
0 17 1 35 4 40 8 13 114 -65 114 -84z"/>
<path d="M4080 4944 c0 -11 5 -14 16 -10 9 3 25 6 37 7 20 1 20 2 -3 9 -39 13
-50 11 -50 -6z"/>
<path d="M1880 5179 l-35 -30 38 26 c33 24 43 35 34 35 -1 0 -18 -14 -37 -31z"/>
<path d="M1810 5123 c-22 -23 -23 -25 -4 -15 12 6 24 18 28 27 7 20 5 19 -24
-12z"/>
<path d="M1700 5025 c-7 -9 -11 -17 -9 -20 3 -2 10 5 17 15 14 24 10 26 -8 5z"/>
<path d="M1649 4973 l-24 -28 28 24 c25 23 32 31 24 31 -2 0 -14 -12 -28 -27z"/>
<path d="M5950 4974 c0 -6 7 -19 16 -30 14 -18 14 -18 3 6 -14 31 -19 36 -19
24z"/>
<path d="M2500 4895 c0 -8 7 -15 16 -15 14 0 14 3 4 15 -7 8 -14 15 -16 15 -2
0 -4 -7 -4 -15z"/>
<path d="M1567 4882 c-19 -20 -23 -37 -7 -27 10 6 33 45 27 45 -2 0 -11 -8
-20 -18z"/>
<path d="M6045 4793 c216 -436 325 -896 325 -1376 0 -614 -167 -1171 -506
-1683 -133 -202 -236 -328 -408 -499 -367 -365 -792 -619 -1286 -768 -341
-103 -673 -145 -1065 -134 -376 11 -694 71 -1007 190 -65 25 -116 42 -113 37
2 -4 33 -17 67 -30 65 -23 105 -48 58 -36 -21 6 -22 5 -8 -4 10 -6 24 -10 30
-9 7 1 22 1 33 0 17 -1 18 -3 5 -12 -12 -8 -9 -9 13 -5 21 5 40 -1 81 -29 29
-19 63 -35 75 -35 14 0 20 -4 15 -11 -5 -9 1 -10 20 -5 17 4 25 3 22 -3 -3 -5
54 -28 126 -52 73 -23 138 -46 143 -49 6 -4 28 -10 50 -13 22 -2 65 -12 95
-20 30 -9 71 -18 90 -21 19 -3 60 -12 90 -21 30 -8 89 -18 130 -20 41 -3 102
-10 135 -15 88 -13 575 -7 602 8 12 7 36 12 54 12 18 0 41 8 52 17 15 13 21
15 24 6 5 -15 49 -17 57 -4 3 5 25 7 49 5 23 -2 36 -1 28 2 -18 9 42 29 176
59 58 13 110 28 116 33 7 5 40 15 75 23 34 7 62 16 62 20 0 4 13 7 30 7 17 -1
43 10 65 27 20 15 60 33 88 41 29 7 53 18 55 24 2 5 9 10 17 10 7 0 18 7 25
15 7 8 25 15 40 15 15 0 33 7 40 15 7 8 19 15 28 15 8 0 12 3 9 7 -7 6 0 11
64 47 19 10 47 30 62 44 23 22 29 24 37 12 8 -12 13 -11 33 8 13 12 29 22 35
22 7 0 12 4 12 8 0 5 18 21 41 38 22 16 54 43 71 61 17 18 50 40 74 50 24 10
47 26 50 36 3 9 11 17 17 17 16 1 67 46 67 60 0 5 4 9 8 7 13 -4 72 51 72 67
0 9 4 16 9 16 12 0 71 59 71 71 0 5 6 9 13 9 12 0 28 24 43 63 3 9 13 17 21
17 17 0 52 41 68 77 6 13 21 29 34 36 13 7 29 21 35 32 6 11 22 36 36 55 51
72 70 101 70 110 0 6 6 10 14 10 7 0 19 15 26 33 7 17 25 48 39 67 14 19 25
41 23 47 -2 7 2 13 8 13 5 0 10 7 10 15 0 8 9 19 20 25 11 6 20 20 20 31 0 12
9 32 20 46 11 14 20 34 20 43 0 10 7 23 15 30 18 15 65 110 65 130 0 8 9 32
19 54 10 23 22 58 25 79 4 20 10 37 14 37 5 0 14 16 21 35 7 19 16 35 21 35 4
0 11 19 15 43 4 23 15 69 25 102 10 33 21 86 25 118 4 31 10 57 15 57 5 0 12
21 15 48 3 26 12 76 20 112 8 36 19 92 25 125 17 87 23 521 10 640 -6 55 -11
109 -11 120 0 11 -13 73 -29 137 -17 65 -30 130 -30 146 0 15 -8 43 -19 62
-10 19 -21 53 -25 75 -4 22 -12 45 -16 50 -9 10 -26 71 -37 128 -3 16 -12 31
-19 34 -8 3 -14 11 -14 18 0 19 -27 68 -32 58 -3 -4 -3 -2 -1 6 2 7 -2 29 -9
47 -10 28 -14 31 -26 21 -13 -10 -14 -8 -8 11 9 28 -12 85 -27 75 -6 -4 -7 -1
-2 7 9 14 -14 90 -27 90 -4 0 -8 7 -8 15 0 7 -7 18 -15 22 -8 5 -16 19 -18 32
-2 12 -9 26 -17 31 -7 4 -14 16 -15 27 -2 17 -35 93 -45 103 -10 10 -31 45
-45 77 -8 17 -19 34 -24 38 -6 3 14 -43 44 -102z"/>
<path d="M1522 4824 c-7 -8 -8 -14 -3 -14 10 0 25 19 20 25 -2 1 -10 -3 -17
-11z"/>
<path d="M1492 4787 c-7 -8 -8 -18 -1 -27 8 -12 9 -11 7 5 -2 12 2 19 10 17 8
-1 11 2 7 8 -8 13 -10 13 -23 -3z"/>
<path d="M1441 4717 c-8 -10 -7 -14 2 -14 8 0 14 6 14 14 0 7 -1 13 -2 13 -2
0 -8 -6 -14 -13z"/>
<path d="M1347 4557 l-17 -32 20 24 c17 20 26 41 18 41 -2 0 -11 -15 -21 -33z"/>
<path d="M1973 4584 c-26 -11 -13 -26 17 -19 17 4 30 4 30 0 0 -19 -32 -63
-50 -68 -11 -3 -20 -10 -20 -16 0 -14 35 -14 61 -1 14 8 19 7 19 -1 0 -7 3
-10 6 -7 3 4 1 16 -6 27 -11 22 -4 26 24 15 9 -3 13 -11 9 -18 -17 -27 -28
-106 -15 -106 22 0 62 24 62 37 0 11 -5 11 -20 3 -16 -8 -20 -8 -20 3 0 35 14
77 25 77 7 0 15 7 19 15 3 10 -3 17 -19 21 -14 3 -29 13 -33 20 -9 15 -68 27
-89 18z"/>
<path d="M1312 4495 c-17 -37 -14 -45 4 -12 9 16 14 31 11 33 -2 2 -9 -7 -15
-21z"/>
<path d="M1291 4434 c0 -11 3 -14 6 -6 3 7 2 16 -1 19 -3 4 -6 -2 -5 -13z"/>
<path d="M1266 4393 c-6 -14 -5 -15 5 -6 7 7 10 15 7 18 -3 3 -9 -2 -12 -12z"/>
<path d="M1225 4299 c-10 -14 -65 -208 -65 -225 0 -10 14 -14 46 -14 l46 0 -6
33 c-3 17 -6 74 -7 125 -1 50 -3 92 -5 92 -1 0 -6 -5 -9 -11z"/>
<path d="M1813 4110 c-13 -5 -23 -16 -23 -24 0 -8 -6 -17 -12 -19 -7 -3 30 -6
83 -6 93 -1 96 0 95 21 -1 15 -10 24 -26 29 -36 10 -91 9 -117 -1z"/>
<path d="M640 3771 c-48 -15 -105 -49 -143 -86 -58 -56 -80 -108 -85 -201 -5
-97 13 -147 78 -218 94 -102 242 -132 362 -73 62 30 115 83 150 149 19 35 23
59 23 128 0 73 -4 92 -27 136 -67 127 -232 203 -358 165z m179 -144 c108 -71
107 -239 -1 -314 -85 -58 -210 -26 -258 67 -24 46 -26 125 -6 173 15 37 54 76
94 94 43 20 125 10 171 -20z"/>
<path d="M1673 3766 c-86 -28 -151 -84 -195 -169 -17 -33 -22 -59 -22 -122 0
-97 23 -154 86 -218 64 -63 128 -91 213 -91 111 0 205 54 261 150 36 61 28 74
-44 74 -52 0 -60 -3 -72 -25 -8 -14 -28 -36 -45 -49 -114 -87 -276 13 -275
169 1 64 54 142 113 164 66 25 164 -4 195 -59 16 -29 20 -30 85 -30 66 0 68 1
61 23 -21 67 -86 140 -153 170 -57 25 -153 31 -208 13z"/>
<path d="M2310 3759 c-75 -30 -150 -107 -179 -184 -55 -146 11 -305 157 -377
56 -28 77 -33 137 -33 85 1 143 24 210 86 71 66 99 128 100 219 0 124 -60 221
-170 278 -71 36 -179 41 -255 11z m197 -120 c82 -40 125 -156 89 -242 -18 -44
-77 -94 -126 -107 -46 -12 -108 0 -152 31 -34 25 -78 113 -78 158 1 134 144
220 267 160z"/>
<path d="M3029 3763 c-73 -24 -138 -79 -178 -153 -32 -58 -36 -73 -36 -140 1
-124 57 -215 166 -271 110 -55 228 -46 321 24 43 33 108 118 108 142 0 8 -22
14 -60 18 l-60 7 -48 -49 c-34 -36 -58 -51 -85 -56 -118 -22 -231 93 -214 218
11 84 92 157 173 157 50 0 120 -35 141 -71 16 -28 21 -29 86 -29 66 0 68 1 62
23 -45 147 -221 232 -376 180z"/>
<path d="M3710 3771 c-177 -58 -272 -240 -211 -402 29 -75 88 -141 159 -176
47 -23 70 -28 132 -27 91 0 147 23 215 85 69 64 99 128 99 214 0 124 -65 229
-176 286 -46 24 -171 36 -218 20z m177 -138 c102 -76 121 -194 46 -284 -36
-42 -79 -62 -138 -63 -61 0 -104 22 -149 77 -28 35 -31 45 -31 111 0 65 3 77
29 110 39 52 97 78 164 73 32 -2 63 -11 79 -24z"/>
<path d="M4322 3763 c-113 -40 -156 -169 -85 -253 32 -38 84 -66 166 -86 85
-22 137 -50 137 -73 0 -33 -11 -51 -41 -66 -72 -38 -165 2 -183 79 -7 29 -7
29 -68 22 -34 -3 -63 -8 -65 -9 -1 -2 4 -28 13 -58 37 -123 181 -187 327 -145
96 28 147 87 147 171 0 101 -46 145 -195 186 -44 12 -92 28 -107 35 -57 29
-41 83 32 105 52 16 104 -8 124 -55 15 -36 16 -36 75 -36 60 0 61 1 61 28 -1
64 -70 140 -149 162 -51 14 -139 11 -189 -7z"/>
<path d="M4790 3470 l0 -300 113 0 c62 0 140 5 173 11 105 19 188 83 232 178
21 46 24 64 20 130 -5 95 -41 167 -107 217 -67 52 -123 64 -288 64 l-143 0 0
-300z m283 179 c132 -36 173 -223 68 -312 -39 -32 -89 -47 -163 -47 l-56 0 -4
178 c-2 97 -2 180 0 185 5 11 111 8 155 -4z"/>
<path d="M5627 3753 c-7 -24 -122 -299 -190 -455 l-55 -128 67 0 68 0 17 45
c10 25 22 48 28 51 5 4 70 8 142 9 l133 3 26 -54 27 -54 65 0 c36 0 65 2 65 5
0 5 -96 226 -193 445 l-65 145 -65 3 c-55 2 -65 0 -70 -15z m111 -241 c54
-140 57 -129 -37 -131 -61 -2 -81 1 -81 11 -1 17 73 208 80 208 3 0 20 -39 38
-88z"/>
<path d="M1120 3425 l0 -55 120 0 120 0 0 55 0 55 -120 0 -120 0 0 -55z"/>
<path d="M1130 2952 c0 -17 53 -196 76 -259 86 -229 253 -497 420 -672 281
-295 547 -460 943 -585 211 -67 489 -104 696 -93 94 4 107 8 185 47 226 113
360 281 360 451 0 48 -6 70 -32 115 -30 53 -31 59 -20 100 25 93 6 146 -87
242 -77 79 -104 131 -105 199 -1 40 4 57 21 75 17 18 26 47 36 116 9 58 10 95
4 99 -5 3 -31 5 -58 4 -44 -1 -54 4 -106 46 -32 26 -73 61 -91 78 -19 16 -41
33 -50 37 -23 9 -752 10 -752 1 0 -5 14 -22 30 -40 53 -56 64 -109 29 -144
-27 -27 -21 -55 10 -51 15 2 21 0 17 -7 -4 -6 0 -11 8 -11 29 0 65 -23 73 -47
l8 -24 24 20 c30 26 51 26 82 3 13 -10 44 -26 69 -35 109 -42 119 -83 47 -200
-17 -28 -37 -83 -48 -133 -23 -105 -37 -131 -102 -174 -49 -34 -51 -38 -63
-101 -11 -59 -48 -138 -71 -152 -4 -3 -25 -8 -47 -11 -21 -3 -45 -10 -53 -15
-13 -7 -13 -10 2 -24 23 -24 9 -40 -30 -33 -28 6 -33 3 -38 -15 -3 -12 -1 -31
5 -42 8 -16 7 -22 -6 -29 -9 -5 -13 -14 -10 -20 4 -6 1 -14 -5 -18 -9 -5 -8
-11 4 -24 9 -9 13 -16 8 -16 -4 0 5 -11 20 -25 27 -26 35 -59 17 -70 -18 -11
-10 -25 14 -25 24 0 39 -13 42 -37 3 -17 1 -17 -59 9 -82 34 -206 174 -192
217 3 10 1 22 -4 25 -34 22 -86 242 -102 434 -6 81 -16 146 -25 159 -7 12 -38
36 -68 55 -64 39 -83 65 -136 184 -32 71 -39 97 -34 125 3 22 1 40 -5 44 -14
8 -14 65 -1 101 6 14 21 35 34 45 13 10 26 31 28 46 3 16 7 35 9 43 4 13 -53
15 -458 17 -255 1 -463 -1 -463 -5z"/>
<path d="M4687 2934 c4 -10 8 -12 13 -5 4 8 85 11 265 9 235 -3 259 -5 269
-21 8 -13 8 -20 0 -25 -15 -10 -23 -58 -12 -74 7 -10 8 -10 7 2 -1 8 0 22 4
30 11 31 27 83 27 91 0 5 -130 9 -290 9 -260 0 -289 -2 -283 -16z"/>
<path d="M5203 2782 c-1 -22 0 -24 9 -8 6 10 6 22 2 26 -5 5 -10 -3 -11 -18z"/>
<path d="M5177 2713 c-2 -4 -7 -21 -10 -38 -6 -30 -6 -30 9 4 8 18 13 35 11
38 -3 2 -7 1 -10 -4z"/>
<path d="M5125 2689 c-4 -6 -5 -12 -2 -15 2 -3 7 2 10 11 7 17 1 20 -8 4z"/>
<path d="M4691 2634 c0 -11 3 -14 6 -6 3 7 2 16 -1 19 -3 4 -6 -2 -5 -13z"/>
<path d="M5110 2550 c-25 -48 -49 -86 -54 -83 -5 4 -6 1 -2 -5 10 -17 -33 -92
-50 -85 -10 4 -12 0 -8 -11 10 -25 18 -20 44 27 49 88 122 238 118 242 -2 2
-24 -36 -48 -85z"/>
<path d="M4990 2333 c0 -9 -7 -19 -48 -69 -5 -5 -15 -21 -22 -33 -10 -19 -14
-21 -22 -10 -7 11 -8 9 -4 -5 4 -11 0 -26 -10 -37 -10 -11 -13 -19 -8 -19 5 0
24 22 41 48 18 26 45 64 59 85 15 20 24 40 20 44 -3 3 -6 2 -6 -4z"/>
<path d="M4791 2070 c-35 -39 -67 -67 -74 -63 -6 4 -8 0 -4 -9 3 -9 2 -20 -1
-24 -17 -23 92 95 119 129 50 61 26 42 -40 -33z"/>
<path d="M4729 2033 c-13 -16 -12 -17 4 -4 16 13 21 21 13 21 -2 0 -10 -8 -17
-17z"/>
<path d="M4638 1915 c-12 -14 -28 -23 -35 -21 -7 3 -12 2 -12 -2 4 -23 -3 -34
-17 -28 -8 3 -13 2 -9 -3 3 -5 -1 -11 -7 -14 -7 -2 -10 -7 -7 -11 3 -4 33 18
65 48 32 31 56 56 51 56 -4 0 -17 -11 -29 -25z"/>
<path d="M4476 1788 c3 -4 -6 -12 -20 -18 -14 -5 -26 -14 -26 -20 0 -6 18 2
40 16 22 15 40 27 40 28 0 1 -9 2 -19 2 -11 0 -17 -4 -15 -8z"/>
<path d="M4380 1720 c-8 -5 -10 -10 -5 -10 6 0 17 5 25 10 8 5 11 10 5 10 -5
0 -17 -5 -25 -10z"/>
<path d="M4330 1690 c-8 -5 -10 -10 -5 -10 6 0 17 5 25 10 8 5 11 10 5 10 -5
0 -17 -5 -25 -10z"/>
<path d="M4280 1660 c-9 -6 -10 -10 -3 -10 6 0 15 5 18 10 8 12 4 12 -15 0z"/>
<path d="M1888 593 c7 -3 16 -2 19 1 4 3 -2 6 -13 5 -11 0 -14 -3 -6 -6z"/>
<path d="M1930 580 c8 -5 20 -10 25 -10 6 0 3 5 -5 10 -8 5 -19 10 -25 10 -5
0 -3 -5 5 -10z"/>
</g>
</svg>
